<svg width="384" height="383" viewBox="0 0 384 383" fill="none" xmlns="http://www.w3.org/2000/svg">
<path d="M0.164251 295.614V138.003C17.5604 136.303 24.9611 151.901 26.4869 159.912C26.3234 181.057 26.0945 223.348 26.4869 223.348C24.6558 230.542 30.8468 228.962 34.1712 227.272C78.119 194.835 116.737 216.863 129.816 227.272C65.3336 210.269 41.2016 247.927 37.9316 273.542C28.1219 319.059 54.2267 344.499 68.5054 351.529C119.026 374.909 140.934 324.062 139.136 328.149C137.697 331.419 146.711 346.515 151.398 353.655C115.592 398.126 60.6578 377.198 59.3498 376.544C11.8706 363.726 0.109752 317.25 0.164251 295.614Z" fill="black" stroke="black" stroke-width="0.326992"/>
<path d="M125.567 264.765C91.8216 231.019 60.1688 250.704 48.5605 264.765C67.3626 216.86 116.248 230.43 116.738 230.43C153.492 236.84 170.919 277.798 173.472 292.391C185.57 361.55 229.551 357.794 255.22 344.878C292.006 307.764 276.092 272.285 260.615 258.061C222.945 230.725 192.165 256.59 181.483 272.939C180.044 262.083 169.33 247.053 164.152 240.894C204.83 196.685 256.527 213.645 277.291 227.651V194.134C276.376 177.916 270.806 172.117 268.136 171.245C270.882 167.713 277.673 167.92 280.725 168.466C287.788 171.474 291.189 188.684 292.006 196.914C291.679 190.21 303.941 167.485 309.01 167.321C313.064 167.19 317.239 169.882 318.819 171.245C312.672 170.199 306.339 187.921 303.941 196.914V307.764C301.456 333.531 286.992 351.853 280.071 357.794C248.418 389.447 207.697 383.19 191.293 376.105C153.754 363.156 141.426 323.732 139.955 305.639C139.955 279.479 126.385 266.89 125.567 264.765Z" fill="black" stroke="black" stroke-width="0.326992"/>
<path d="M383.328 88.5147C307.466 83.4136 294.714 137.836 297.82 165.685C317.309 143.58 347.577 120.832 360.275 112.222L306.485 168.628C311.063 167.843 314.824 170.154 316.132 171.407C374.729 169.838 385.345 115.492 383.328 88.5147Z" fill="#04535F" stroke="#05535F" stroke-width="0.326992"/>
<path d="M294.882 0.214844C239.948 49.002 268.396 96.732 289.487 114.499C291.449 61.0027 293.901 38.1459 294.882 33.4045C296.714 39.0288 298.806 89.8107 299.624 114.499C348.018 67.4117 316.627 18.6899 294.882 0.214844Z" fill="#075460" stroke="#05535F" stroke-width="0.326992"/>
<path d="M291.382 166.16C290.467 93.4365 232.251 84.3025 203.258 88.8259C198.288 148.992 245.549 169.484 269.801 172.209C266.531 168.285 282.226 169.266 282.226 168.775C277.91 166.029 244.568 130.79 228.436 113.514C230.791 112.86 271.381 148.338 291.382 166.16Z" fill="#04525C" stroke="#05535F" stroke-width="0.326992"/>
</svg>
